<?xml version="1.0" standalone="no"?>
<!DOCTYPE svg PUBLIC "-//W3C//DTD SVG 20010904//EN"
 "http://www.w3.org/TR/2001/REC-SVG-20010904/DTD/svg10.dtd">
<svg version="1.0" xmlns="http://www.w3.org/2000/svg"
 width="300.000000pt" height="300.000000pt" viewBox="0 0 300.000000 300.000000"
 preserveAspectRatio="xMidYMid meet">
<metadata>
Created by potrace 1.14, written by Peter Selinger 2001-2017
</metadata>
<g transform="translate(0.000000,300.000000) scale(0.100000,-0.100000)"
fill="#000000" stroke="none">
<path d="M1370 2943 c0 -7 38 -36 50 -38 5 -1 31 -13 213 -100 32 -15 56 -29
55 -30 -2 -2 -47 -25 -100 -52 l-97 -49 -78 34 c-43 18 -94 39 -113 46 -19 8
-56 23 -82 36 -26 12 -55 20 -65 18 -10 -2 20 -19 72 -41 50 -21 99 -42 110
-48 11 -5 47 -20 79 -33 56 -22 58 -24 37 -35 -12 -7 -42 -18 -65 -25 -39 -12
-49 -11 -92 6 -27 11 -58 24 -69 28 -11 4 -38 15 -60 24 -70 28 -100 39 -110
42 -5 1 -18 5 -27 9 -10 4 -18 3 -18 -2 0 -5 44 -26 98 -47 53 -21 109 -44
125 -52 15 -8 27 -13 27 -9 0 3 14 -1 30 -10 17 -9 30 -19 30 -24 0 -4 -27
-20 -60 -35 l-60 -28 -117 42 c-65 22 -127 45 -138 49 -65 27 -78 31 -94 31
-11 0 -21 -7 -25 -15 -13 -36 6 -48 154 -100 36 -13 79 -28 95 -35 l30 -12
-65 -30 -65 -30 -95 31 c-52 17 -143 47 -203 66 -124 40 -118 39 -111 20 4 -8
14 -15 23 -15 9 0 55 -13 101 -29 47 -15 124 -40 172 -55 65 -21 87 -33 91
-48 5 -17 12 -20 44 -15 28 3 77 -8 191 -45 l152 -49 -4 -47 c-3 -26 -5 -56
-5 -67 -1 -13 -12 -25 -30 -32 -18 -7 -31 -19 -33 -33 -2 -17 -21 -33 -68 -57
-150 -80 -256 -261 -276 -473 -21 -220 15 -451 97 -629 l39 -84 -43 -46 c-23
-25 -48 -60 -55 -76 -10 -24 -20 -31 -43 -33 -38 -3 -97 -33 -125 -64 -64 -72
-76 -198 -26 -260 28 -33 41 -46 52 -50 19 -6 15 -175 -5 -246 -10 -34 -22
-65 -26 -68 -35 -21 43 -24 649 -24 l658 0 1 38 c2 72 3 85 9 80 3 -4 7 -12 8
-20 1 -7 11 -32 22 -55 l19 -43 117 0 c65 0 118 4 118 9 0 5 -4 11 -9 13 -9 3
-89 165 -96 195 -3 10 -11 45 -19 77 -15 59 -15 60 10 85 26 25 54 72 62 101
9 35 4 118 -10 150 -8 19 -16 38 -17 42 0 4 -21 26 -46 49 -50 46 -142 88
-185 84 -23 -2 -31 3 -38 24 -13 38 -69 91 -119 113 -39 17 -42 21 -32 39 6
12 13 33 15 47 2 15 7 43 10 62 6 31 8 147 4 160 -1 3 -3 46 -5 95 -11 278
-21 353 -60 471 -60 178 -154 273 -305 305 -30 6 -62 17 -71 25 -8 8 -21 14
-27 14 -16 0 -25 18 -29 58 -2 22 1 39 9 44 10 6 10 10 -1 17 -9 6 -16 28 -17
51 -2 40 -1 41 25 35 14 -4 40 -13 56 -20 88 -39 131 -34 118 15 -5 19 -15 24
-133 65 l-65 22 -5 52 c-4 35 -2 52 7 55 7 3 41 -6 75 -19 35 -13 101 -38 148
-55 47 -18 89 -36 95 -41 12 -12 45 -11 45 1 0 6 -4 11 -10 11 -15 2 -22 4
-55 18 -16 6 -84 33 -150 58 -66 25 -124 50 -129 54 -5 4 14 19 42 32 l50 24
58 -23 c33 -13 68 -28 79 -34 11 -5 65 -28 120 -51 55 -23 104 -44 109 -47 5
-2 7 1 4 9 -3 8 -76 44 -163 80 -88 37 -160 71 -162 75 -2 8 172 94 190 94 5
0 46 -18 90 -39 127 -61 279 -131 284 -131 2 0 1 5 -3 11 -4 6 -59 36 -123 66
-205 96 -236 113 -236 126 0 6 -13 12 -30 13 -17 1 -68 19 -115 41 -153 72
-245 116 -252 120 -5 2 -8 0 -8 -4z m-495 -343 c3 -6 -1 -7 -9 -4 -18 7 -21
14 -7 14 6 0 13 -4 16 -10z m40 -18 c-3 -3 -11 0 -18 7 -9 10 -8 11 6 5 10 -3
15 -9 12 -12z m50 -12 c13 -6 15 -9 5 -9 -8 0 -22 4 -30 9 -18 12 -2 12 25 0z
m80 -30 c13 -6 15 -9 5 -9 -8 0 -22 4 -30 9 -18 12 -2 12 25 0z m60 -20 c3 -5
1 -10 -4 -10 -6 0 -11 5 -11 10 0 6 2 10 4 10 3 0 8 -4 11 -10z m241 -18 c1
-25 -3 -26 -42 -12 -26 10 -26 11 -8 25 26 20 49 14 50 -13z m-72 -73 l66 -23
0 -48 c0 -26 -2 -48 -5 -48 -4 0 -207 67 -265 87 -19 7 98 62 121 58 9 -2 47
-14 83 -26z m226 -29 c8 -5 11 -10 5 -10 -5 0 -17 5 -25 10 -8 5 -10 10 -5 10
6 0 17 -5 25 -10z m61 -28 c-7 -2 -18 1 -23 6 -8 8 -4 9 13 5 13 -4 18 -8 10
-11z m12 -29 c-7 -2 -19 -2 -25 0 -7 3 -2 5 12 5 14 0 19 -2 13 -5z"/>
</g>
</svg>
